<?xml version="1.0" standalone="no"?>
<!DOCTYPE svg PUBLIC "-//W3C//DTD SVG 20010904//EN"
 "http://www.w3.org/TR/2001/REC-SVG-20010904/DTD/svg10.dtd">
<svg version="1.0" xmlns="http://www.w3.org/2000/svg"
 width="512.000000pt" height="512.000000pt" viewBox="0 0 512.000000 512.000000"
 preserveAspectRatio="xMidYMid meet">
<metadata>
Created by potrace 1.14, written by Peter Selinger 2001-2017
</metadata>
<g transform="translate(0.000000,512.000000) scale(0.100000,-0.100000)"
fill="#000000" stroke="none">
<path d="M1250 3755 c-228 -32 -436 -100 -630 -208 l-75 -42 160 -6 c264 -11
467 -74 665 -209 l64 -43 -88 -18 c-163 -33 -303 -120 -390 -242 -37 -52 -86
-145 -86 -163 0 -2 48 -4 108 -5 59 -1 118 -4 132 -8 22 -6 19 -9 -30 -25
-233 -76 -402 -283 -426 -523 -7 -63 -6 -66 12 -58 58 25 156 55 202 61 l52 7
-79 -79 c-87 -88 -141 -180 -166 -286 -17 -72 -19 -212 -5 -278 10 -44 59
-170 66 -170 2 0 52 49 111 109 232 234 502 389 815 470 64 17 146 33 182 37
l66 7 0 -69 -1 -69 -42 -32 c-84 -63 -257 -249 -257 -276 0 -3 15 0 34 8 52
22 195 62 251 70 l49 7 -50 -40 c-27 -21 -68 -60 -91 -86 -39 -44 -113 -172
-113 -195 0 -6 30 4 68 23 77 38 183 78 259 96 l52 12 58 -48 c119 -97 260
-144 438 -144 178 0 319 47 438 144 l58 48 52 -12 c76 -18 182 -58 260 -96 37
-19 67 -29 67 -23 0 23 -74 151 -113 195 -23 26 -64 65 -91 86 l-50 40 49 -7
c56 -8 199 -48 251 -70 19 -8 34 -11 34 -8 0 27 -173 213 -257 276 l-42 32 -1
69 0 69 66 -7 c36 -4 118 -20 182 -37 313 -81 583 -236 815 -470 59 -60 109
-109 111 -109 7 0 56 126 66 170 14 66 12 206 -5 278 -25 106 -79 198 -166
286 l-79 79 52 -7 c46 -6 144 -36 202 -61 18 -8 19 -5 12 58 -24 240 -193 447
-426 523 -49 16 -52 19 -30 25 14 4 73 7 133 8 59 1 107 3 107 5 0 18 -49 111
-86 163 -87 122 -227 209 -390 242 l-88 18 64 43 c198 135 401 198 665 209
l160 6 -75 42 c-256 143 -563 223 -853 223 -362 0 -711 -105 -992 -297 l-99
-69 -108 73 c-344 232 -792 335 -1208 278z"/>
</g>
</svg>
